# xmcd
#
# Track frame offsets:
#	150
#	25361
#	49413
#	74897
#	101383
#	126009
#	156934
#	182133
#	208476
#	230238
#	249709
#	274906
#
# Disc length: 3967 seconds
#
# Revision: 1
# Processed by: cddbd v1.5.2PL0 Copyright (c) Steve Scherf et al.
# Submitted via: EasyCDDAExtractor 10.2.0.1
#
DISCID=c30f7d0c
DTITLE=Various Artist -  What Dreams May Come CD 2
DYEAR=2009
DGENRE=Progressive House
TTITLE0=Moonbeam feat. Mohammed El Fatih - Malaria (Original Mix)
TTITLE1=Jan Zyabovski - Toys (Original Mix)
TTITLE2=Grunjah - Soap Opera (Original Mix)
TTITLE3=Uone and Pavel Khvaleev - Make Me Wet (Continuum Remix)
TTITLE4=Pak and Vak - Voodoo (Original Mix)
TTITLE5=Andrew Jubel - Galvanica (Original Mix)
TTITLE6=Jan Zyabovski and Moonbeam - Liveliness (Moonbeam Mix)
TTITLE7=Simao Ferreira - Jelly Pig (Pak and Vak Remix)
TTITLE8=Jan Zyabovski - The Lighthouse (Original Mix)
TTITLE9=Vital K - Sting (Original Mix)
TTITLE10=Pak and Pak - Vision (Original Mix)
TTITLE11=Povar and Pavel Khvaleev - Fable (Original Mix)
EXTD=
EXTT0=
EXTT1=
EXTT2=
EXTT3=
EXTT4=
EXTT5=
EXTT6=
EXTT7=
EXTT8=
EXTT9=
EXTT10=
EXTT11=
PLAYORDER=
